<?xml version="1.0" encoding="UTF-8"?>
<svg version="1.1" xmlns="http://www.w3.org/2000/svg" width="500" height="500">
<path d="M0 0 C0.60154922 6.8533643 1.14868182 13.60736905 0.83984375 20.48828125 C1.07260225 24.13861585 2.05120877 27.46900833 3 31 C3.66008057 31.16604736 4.32016113 31.33209473 5.00024414 31.50317383 C8.02252884 32.26702469 11.04249542 33.03968576 14.0625 33.8125 C15.10083984 34.07353516 16.13917969 34.33457031 17.20898438 34.60351562 C22.71539201 36.01944902 27.85590688 37.57023687 33 40 C31.64406214 44.06781358 29.75114214 44.6889569 26.125 46.9375 C25.51221191 47.32156006 24.89942383 47.70562012 24.26806641 48.10131836 C22.91587094 48.94824088 21.5614167 49.79156456 20.20507812 50.63183594 C16.24807002 53.0870035 12.31304985 55.57708336 8.375 58.0625 C7.56039307 58.57506348 6.74578613 59.08762695 5.90649414 59.61572266 C1.41156702 62.4501815 -3.03568281 65.33564853 -7.4375 68.3125 C-11.25531616 70.88965902 -15.12813078 73.27278531 -19.125 75.5625 C-22.9271925 77.74083945 -26.55624257 80.01976033 -30.125 82.5625 C-31.34703125 83.41134766 -31.34703125 83.41134766 -32.59375 84.27734375 C-34.19593657 85.42436368 -35.76027852 86.6261883 -37.28125 87.87890625 C-39.88956232 89.82209893 -41.86827592 91.07317895 -45 92 C-47.72920668 91.55551302 -50.22345929 91.02950302 -52.875 90.3125 C-57.27998021 89.13901038 -60.14850247 88.6036631 -64.44921875 90.60546875 C-67.47123251 92.92980304 -70.23900704 95.37348463 -73 98 C-79.45124717 103 -79.45124717 103 -82 103 C-82 103.66 -82 104.32 -82 105 C-83.32 105.33 -84.64 105.66 -86 106 C-86 106.66 -86 107.32 -86 108 C-87.7565918 109.54052734 -87.7565918 109.54052734 -90.19921875 111.3359375 C-91.07900391 111.98820312 -91.95878906 112.64046875 -92.86523438 113.3125 C-94.26225586 114.3334375 -94.26225586 114.3334375 -95.6875 115.375 C-97.50437675 116.71550836 -99.32079667 118.05663617 -101.13671875 119.3984375 C-102.35427856 120.29054932 -102.35427856 120.29054932 -103.59643555 121.20068359 C-105.32636629 122.49571555 -107.01661068 123.84438073 -108.67895508 125.22509766 C-111 127 -111 127 -113 127 C-112.67128906 127.59683594 -112.34257812 128.19367188 -112.00390625 128.80859375 C-110.96238506 130.70817034 -109.92664808 132.61092228 -108.89453125 134.515625 C-107.59275222 136.90982479 -106.27839026 139.29316132 -104.94921875 141.671875 C-95.650694 158.52532013 -88.08116099 176.42139206 -83 195 C-82.65582031 196.25167969 -82.31164062 197.50335938 -81.95703125 198.79296875 C-80.8792514 202.84180113 -79.91664045 206.91191076 -79 211 C-78.73872314 212.16112305 -78.73872314 212.16112305 -78.47216797 213.34570312 C-73.66711311 235.21458382 -71.8050105 257.66791287 -73.75 280 C-73.83507812 280.9782373 -73.92015625 281.95647461 -74.0078125 282.96435547 C-75.10450876 294.45187833 -76.6979222 306.24480551 -81 317 C-96.51 317 -112.02 317 -128 317 C-126 313 -126 313 -124.08203125 309.84765625 C-114.52438929 294.07691238 -109.52035774 277.18535043 -107 259 C-106.814375 257.93910156 -106.62875 256.87820313 -106.4375 255.78515625 C-105.82140867 250.45486612 -105.85579646 245.1734884 -105.875 239.8125 C-105.87113281 238.75224609 -105.86726563 237.69199219 -105.86328125 236.59960938 C-105.87518081 226.83601659 -106.10245388 217.37441392 -109 208 C-109.26271243 206.46044867 -109.51088292 204.91839209 -109.75 203.375 C-113.51542792 182.43693868 -121.36566091 162.38507654 -132 144 C-133.32 144 -134.64 144 -136 144 C-136 144.66 -136 145.32 -136 146 C-137.32 146.33 -138.64 146.66 -140 147 C-140 147.66 -140 148.32 -140 149 C-141.32 149.33 -142.64 149.66 -144 150 C-143.48050781 151.14855469 -142.96101563 152.29710937 -142.42578125 153.48046875 C-136.43469452 166.79031881 -130.97192933 179.64502061 -128 194 C-127.62635663 195.58365403 -127.2515064 197.1670242 -126.875 198.75 C-126.05523883 202.44908762 -125.58206176 206.12517171 -125.21875 209.89453125 C-125.03018902 211.70943069 -124.74297633 213.51358382 -124.4375 215.3125 C-123.61013056 222.28604244 -123.56663826 229.12208591 -125 236 C-125.07317227 237.52035723 -125.13487175 239.04129306 -125.1875 240.5625 C-127.13018 262.64927728 -138.41917192 284.52317453 -155.19921875 298.90234375 C-174.51865271 313.37171061 -196.15118906 317.36674199 -219.8984375 314.53515625 C-238.18673063 310.99886158 -256.31678173 302.44171936 -271 291 C-271 290.34 -271 289.68 -271 289 C-271.74169434 288.74436279 -272.48338867 288.48872559 -273.24755859 288.2253418 C-276.14430937 286.93575583 -277.7917932 285.60850156 -280.0390625 283.39453125 C-280.77906494 282.66596924 -281.51906738 281.93740723 -282.28149414 281.18676758 C-283.05485107 280.40325928 -283.82820801 279.61975098 -284.625 278.8125 C-285.42607178 278.00385498 -286.22714355 277.19520996 -287.05249023 276.36206055 C-297.97550109 265.13713252 -306.32972838 252.59943865 -314 239 C-314.79664063 237.63101563 -314.79664063 237.63101563 -315.609375 236.234375 C-323.91624708 220.96044892 -328.87463968 203.20442532 -331 186 C-331.12890625 184.98550781 -331.2578125 183.97101563 -331.390625 182.92578125 C-331.69952302 179.94654111 -331.87545736 176.99268632 -332 174 C-332.04882324 173.0406958 -332.04882324 173.0406958 -332.09863281 172.06201172 C-333.33653191 145.20960453 -325.48609105 119.56854466 -307.515625 99.328125 C-306.1875 97.9375 -306.1875 97.9375 -304 96 C-303.34 96 -302.68 96 -302 96 C-301.505 94.515 -301.505 94.515 -301 93 C-286.903632 82.14417637 -270.91651067 77.82245545 -253.375 77.8125 C-252.26253906 77.80025391 -251.15007812 77.78800781 -250.00390625 77.77539062 C-238.69718274 77.75564664 -228.57499625 79.25423505 -218.125 83.625 C-217.26495361 83.97908936 -216.40490723 84.33317871 -215.51879883 84.69799805 C-200.62973212 90.97344027 -184.95655691 99.87742419 -174 112 C-173.67 112.99 -173.34 113.98 -173 115 C-171.67127995 115.67581451 -170.33713182 116.34098503 -169 117 C-164.38270064 121.50908141 -160.37919785 126.50880349 -157 132 C-153.72474189 130.94035767 -151.38618531 129.60721355 -148.8125 127.375 C-146 125 -146 125 -144 125 C-147.09630791 120.10192856 -150.61858848 115.7888769 -154.4375 111.4375 C-154.99759766 110.79103516 -155.55769531 110.14457031 -156.13476562 109.47851562 C-159.9865783 105.0603921 -164.02744755 100.91058745 -168.23828125 96.83203125 C-168.92277344 96.16558594 -169.60726562 95.49914062 -170.3125 94.8125 C-171.35857422 93.80123047 -171.35857422 93.80123047 -172.42578125 92.76953125 C-174 91 -174 91 -174 89 C-174.99 89 -175.98 89 -177 89 C-177 88.34 -177 87.68 -177 87 C-177.515625 86.773125 -178.03125 86.54625 -178.5625 86.3125 C-181.89547005 84.51782382 -185.14703671 82.50034985 -188 80 C-188 79.34 -188 78.68 -188 78 C-188.66 77.76796875 -189.32 77.5359375 -190 77.296875 C-193.88909205 75.61565291 -197.38402846 73.4466561 -201 71.25 C-214.10748589 63.45756752 -227.34824162 58.11160815 -242 54 C-243.22332031 53.65582031 -244.44664062 53.31164063 -245.70703125 52.95703125 C-262.52129865 48.93745891 -280.56384998 49.71613124 -297.12207031 54.46191406 C-298.80855272 54.94514433 -300.50921447 55.37822163 -302.2109375 55.8046875 C-322.6799603 61.56674486 -341.84418116 79.01955941 -352.1875 97.25 C-353.15039729 99.15403418 -354.08596398 101.07203332 -355 103 C-355.57492187 104.18078125 -356.14984375 105.3615625 -356.7421875 106.578125 C-362.43085427 118.64763315 -366.5688882 131.52624919 -367.75830078 144.86157227 C-368 147 -368 147 -368.51635742 149.38500977 C-369.488829 154.64303249 -369.1909804 160.0437223 -369.1875 165.375 C-369.18669434 166.63618652 -369.18588867 167.89737305 -369.18505859 169.19677734 C-369.12738074 177.96946613 -368.66816722 186.3708387 -367 195 C-366.86215088 195.74443359 -366.72430176 196.48886719 -366.58227539 197.25585938 C-365.42065665 203.35123511 -363.91460422 209.29187968 -362.1875 215.25 C-361.92179199 216.16676514 -361.65608398 217.08353027 -361.38232422 218.02807617 C-357.46299409 231.38452465 -352.50222975 243.69980345 -346 256 C-345.54496094 256.86625 -345.08992188 257.7325 -344.62109375 258.625 C-339.57448461 267.95206639 -333.63188658 276.68142978 -327.3762207 285.22924805 C-325.31947535 288.05732355 -323.42400824 290.79794831 -322 294 C-321.34 294 -320.68 294 -320 294 C-318.71464829 295.49514474 -317.49626194 297.04820119 -316.3125 298.625 C-313.3330915 302.45181273 -310.36881606 305.6476386 -306.609375 308.69140625 C-304.20824244 310.64378345 -302.09177657 312.71806192 -300 315 C-300 315.66 -300 316.32 -300 317 C-309.45721986 317.39551702 -318.91156078 317.69670452 -328.3752718 317.88080692 C-332.77115459 317.96921998 -337.16134871 318.08884674 -341.55395508 318.2824707 C-369.93182611 319.50150624 -369.93182611 319.50150624 -376.64559937 315.37322998 C-380.52013848 311.52280613 -382.60011681 307.20695733 -384.27809143 302.06065369 C-385.31730186 299.09427692 -386.96277447 296.61196998 -388.6875 294 C-392.59231732 287.19232089 -395.85203095 280.08161695 -399.10839844 272.94775391 C-399.88756925 271.24561131 -400.6808885 269.54995967 -401.4765625 267.85546875 C-408.1682839 253.50726857 -413.95264014 237.62063441 -416.640625 221.9765625 C-417.00982638 219.74382343 -417.00982638 219.74382343 -418 216.625 C-420.71003114 206.80113712 -421.58920755 196.5470457 -422.625 186.4375 C-422.82609375 184.5822168 -422.82609375 184.5822168 -423.03125 182.68945312 C-424.27390769 170.70034244 -424.05336396 159.41313414 -422.75 147.4375 C-422.61795166 146.21474365 -422.48590332 144.9919873 -422.34985352 143.73217773 C-421.04144942 132.28947965 -419.44056214 120.7010268 -415 110 C-414.58934028 108.56666512 -414.19396623 107.12887913 -413.8125 105.6875 C-411.62325778 98.17338219 -408.22196557 91.11480615 -405 84 C-404.34 84 -403.68 84 -403 84 C-402.89816406 83.28199219 -402.79632813 82.56398438 -402.69140625 81.82421875 C-400.50627521 72.898514 -392.82260602 64.88225477 -387 58 C-385.98486328 56.78183594 -385.98486328 56.78183594 -384.94921875 55.5390625 C-366.98663126 34.71953696 -343.63491338 22.01682629 -317 16 C-315.91332031 15.75378906 -314.82664062 15.50757813 -313.70703125 15.25390625 C-283.09572603 9.74006866 -248.88815728 15.59668896 -221 29 C-220.42475586 29.2686084 -219.84951172 29.5372168 -219.25683594 29.81396484 C-210.90673943 33.72578008 -202.89423317 38.11029435 -195 42.875 C-194.20384277 43.35146973 -193.40768555 43.82793945 -192.58740234 44.31884766 C-191.85730957 44.7679248 -191.1272168 45.21700195 -190.375 45.6796875 C-189.72273437 46.07913574 -189.07046875 46.47858398 -188.3984375 46.89013672 C-187.93695313 47.2563916 -187.47546875 47.62264648 -187 48 C-187 48.66 -187 49.32 -187 50 C-185.91332031 50.37705078 -185.91332031 50.37705078 -184.8046875 50.76171875 C-181.77456205 52.0995318 -179.66224689 53.69272344 -177.125 55.8125 C-174.20602108 58.21534446 -171.30366342 60.54641616 -168.1875 62.6875 C-165.08561618 64.9378863 -162.68310136 67.26811498 -160 70 C-158.75403264 71.23711744 -157.50651583 72.47267546 -156.2578125 73.70703125 C-154.88015605 75.0754682 -153.50255306 76.44395897 -152.125 77.8125 C-151.44308594 78.48603516 -150.76117188 79.15957031 -150.05859375 79.85351562 C-140.42879445 89.43745874 -140.42879445 89.43745874 -137 94 C-137 94.66 -137 95.32 -137 96 C-136.34 96 -135.68 96 -135 96 C-133.37322909 98.13770618 -131.86020356 100.2675534 -130.375 102.5 C-129.95476562 103.12003906 -129.53453125 103.74007812 -129.1015625 104.37890625 C-128.06162833 105.91517264 -127.03002944 107.45707524 -126 109 C-122.40784535 107.71260192 -119.71171701 106.20929691 -116.75 103.8125 C-115.98042969 103.19890625 -115.21085937 102.5853125 -114.41796875 101.953125 C-113.62003906 101.30859375 -112.82210938 100.6640625 -112 100 C-110.35819197 98.68246821 -108.71250568 97.36975088 -107.0625 96.0625 C-106.33160156 95.47597656 -105.60070312 94.88945313 -104.84765625 94.28515625 C-103 93 -103 93 -101 93 C-101 92.34 -101 91.68 -101 91 C-98.94870837 89.39477326 -96.89620521 87.90639629 -94.75 86.4375 C-93.4677519 85.54440005 -92.18652095 84.64983818 -90.90625 83.75390625 C-90.25527344 83.29902832 -89.60429687 82.84415039 -88.93359375 82.37548828 C-84.98346232 79.56550842 -81.16345542 76.58085191 -77.328125 73.6171875 C-75 72 -75 72 -73 72 C-73.10380981 71.15574463 -73.10380981 71.15574463 -73.2097168 70.29443359 C-74.77898864 54.59531655 -74.77898864 54.59531655 -70.28125 48.77636719 C-65.78056724 44.66093309 -60.64043126 41.53197382 -55.39941406 38.44873047 C-52.09236125 36.45198125 -49.11502205 34.17953013 -46.0625 31.8125 C-45.16660156 31.13832031 -44.27070313 30.46414062 -43.34765625 29.76953125 C-41.8206619 28.61856879 -40.30669144 27.45004936 -38.80859375 26.26171875 C-37 25 -37 25 -35 25 C-35 24.34 -35 23.68 -35 23 C-33.02 22.505 -33.02 22.505 -31 22 C-31 21.34 -31 20.68 -31 20 C-29.3125 18.484375 -29.3125 18.484375 -27 16.75 C-26.17371094 16.12609375 -25.34742188 15.5021875 -24.49609375 14.859375 C-23.67238281 14.24578125 -22.84867187 13.6321875 -22 13 C-21.33097656 12.48953125 -20.66195313 11.9790625 -19.97265625 11.453125 C-17.99563298 9.94913183 -16.00092622 8.47203075 -14 7 C-13.14792969 6.36320313 -12.29585938 5.72640625 -11.41796875 5.0703125 C-10.53753906 4.42835938 -9.65710938 3.78640625 -8.75 3.125 C-7.94046875 2.52945312 -7.1309375 1.93390625 -6.296875 1.3203125 C-4 -0 -4 -0 0 0 Z M-258 118 C-258.75796875 118.43570313 -259.5159375 118.87140625 -260.296875 119.3203125 C-271.55532488 126.23405857 -278.81707233 137.19223766 -282.10546875 149.93359375 C-287.52927095 174.19218772 -281.76388699 198.09028163 -271 220 C-270.53980469 220.97582031 -270.07960938 221.95164062 -269.60546875 222.95703125 C-267.95065737 226.0935229 -266.07000612 228.79494515 -263.9375 231.625 C-261.65062611 234.66564797 -259.57282246 237.52838151 -258 241 C-257.34 241 -256.68 241 -256 241 C-255.6596875 241.83144531 -255.6596875 241.83144531 -255.3125 242.6796875 C-253.61971198 245.6722949 -251.46047706 247.72889589 -249 250.125 C-248.113125 250.99382812 -247.22625 251.86265625 -246.3125 252.7578125 C-245.549375 253.49773437 -244.78625 254.23765625 -244 255 C-243.01 255.99 -243.01 255.99 -242 257 C-225.65266269 268.47340896 -210.19288791 275.21827337 -190 272.5 C-180.36844618 270.2701869 -172.45020999 263.50366215 -166.68359375 255.7109375 C-155.98816773 238.48906823 -154.71929882 216.38312888 -158.62890625 196.859375 C-160.81013277 187.76902782 -164.13087346 179.48458207 -168 171 C-172.00735217 171.60110283 -174.55469371 173.66602028 -177.75 176.0625 C-178.73484375 176.79597656 -179.7196875 177.52945313 -180.734375 178.28515625 C-181.48203125 178.85105469 -182.2296875 179.41695313 -183 180 C-182.5057903 182.62458935 -181.94784762 185.19158569 -181.24609375 187.76953125 C-178.23642186 199.0957844 -176.46593688 213.14546917 -182 224 C-186.11995758 229.93070437 -190.75187678 234.53010088 -198 236 C-211.6643929 237.14338541 -221.39772149 233.49727239 -232 225 C-234.6875 222.5625 -234.6875 222.5625 -237 220 C-237.77730469 219.24589844 -237.77730469 219.24589844 -238.5703125 218.4765625 C-250.21314265 206.52047234 -255.52263743 189.84752085 -255.34985352 173.49511719 C-255.06796537 164.52405073 -253.27791401 158.31932696 -246.92578125 151.73046875 C-240.40938965 145.87496879 -234.3741591 145.35865598 -225.6875 145.6171875 C-213.72960135 146.85857952 -203.30329948 154.69670052 -195 163 C-190.05 159.37 -185.1 155.74 -180 152 C-188.69378474 134.61243052 -206.42725652 123.0617529 -224 116 C-234.99314289 112.5738038 -247.98272713 111.84434759 -258 118 Z " fill="#FEA300" transform="translate(466,0)"/>
<path d="M0 0 C0.57524414 0.2686084 1.15048828 0.5372168 1.74316406 0.81396484 C10.09326057 4.72578008 18.10576683 9.11029435 26 13.875 C26.79615723 14.35146973 27.59231445 14.82793945 28.41259766 15.31884766 C29.14269043 15.7679248 29.8727832 16.21700195 30.625 16.6796875 C31.27726563 17.07913574 31.92953125 17.47858398 32.6015625 17.89013672 C33.06304687 18.2563916 33.52453125 18.62264648 34 19 C34 19.66 34 20.32 34 21 C35.08667969 21.37705078 35.08667969 21.37705078 36.1953125 21.76171875 C39.22543795 23.0995318 41.33775311 24.69272344 43.875 26.8125 C46.79397892 29.21534446 49.69633658 31.54641616 52.8125 33.6875 C55.91438382 35.9378863 58.31689864 38.26811498 61 41 C62.24596736 42.23711744 63.49348417 43.47267546 64.7421875 44.70703125 C66.11984395 46.0754682 67.49744694 47.44395897 68.875 48.8125 C69.55691406 49.48603516 70.23882812 50.15957031 70.94140625 50.85351562 C80.57120555 60.43745874 80.57120555 60.43745874 84 65 C84 65.66 84 66.32 84 67 C84.66 67 85.32 67 86 67 C87.79083852 69.30166787 89.47259242 71.60238901 91.125 74 C91.59292969 74.66773437 92.06085938 75.33546875 92.54296875 76.0234375 C93.70126236 77.67814266 94.85139765 79.33855307 96 81 C94.44517744 85.5473235 90.88410174 87.65203594 87.125 90.3125 C86.18720703 91.01342773 86.18720703 91.01342773 85.23046875 91.72851562 C80.56580704 95.06675661 80.56580704 95.06675661 77.91625977 94.75415039 C74.99484393 93.60441749 73.72312597 91.58201628 71.8125 89.125 C71.02617187 88.13242188 70.23984375 87.13984375 69.4296875 86.1171875 C68.62789063 85.08851562 67.82609375 84.05984375 67 83 C62.26443004 76.98020768 57.65769333 71.31908916 51.7265625 66.4375 C50.0357543 65.02976829 48.4596243 63.64767406 47 62 C47 61.34 47 60.68 47 60 C46.01 60 45.02 60 44 60 C44 59.34 44 58.68 44 58 C43.484375 57.773125 42.96875 57.54625 42.4375 57.3125 C39.10452995 55.51782382 35.85296329 53.50034985 33 51 C33 50.34 33 49.68 33 49 C32.34 48.76796875 31.68 48.5359375 31 48.296875 C27.11090795 46.61565291 23.61597154 44.4466561 20 42.25 C6.89251411 34.45756752 -6.34824162 29.11160815 -21 25 C-22.22332031 24.65582031 -23.44664062 24.31164063 -24.70703125 23.95703125 C-41.52129865 19.93745891 -59.56384998 20.71613124 -76.12207031 25.46191406 C-77.80855272 25.94514433 -79.50921447 26.37822163 -81.2109375 26.8046875 C-101.6799603 32.56674486 -120.84418116 50.01955941 -131.1875 68.25 C-132.15039729 70.15403418 -133.08596398 72.07203332 -134 74 C-134.57492188 75.18078125 -135.14984375 76.3615625 -135.7421875 77.578125 C-141.43085427 89.64763315 -145.5688882 102.52624919 -146.75830078 115.86157227 C-147 118 -147 118 -147.51635742 120.38500977 C-148.488829 125.64303249 -148.1909804 131.0437223 -148.1875 136.375 C-148.18669434 137.63618652 -148.18588867 138.89737305 -148.18505859 140.19677734 C-148.12738074 148.96946613 -147.66816722 157.3708387 -146 166 C-145.86215088 166.74443359 -145.72430176 167.48886719 -145.58227539 168.25585938 C-144.42065665 174.35123511 -142.91460422 180.29187968 -141.1875 186.25 C-140.92179199 187.16676514 -140.65608398 188.08353027 -140.38232422 189.02807617 C-136.46299409 202.38452465 -131.50222975 214.69980345 -125 227 C-124.31744141 228.299375 -124.31744141 228.299375 -123.62109375 229.625 C-118.57448461 238.95206639 -112.63188658 247.68142978 -106.3762207 256.22924805 C-104.31947535 259.05732355 -102.42400824 261.79794831 -101 265 C-100.34 265 -99.68 265 -99 265 C-97.71464829 266.49514474 -96.49626194 268.04820119 -95.3125 269.625 C-92.3330915 273.45181273 -89.36881606 276.6476386 -85.609375 279.69140625 C-83.20824244 281.64378345 -81.09177657 283.71806192 -79 286 C-79 286.66 -79 287.32 -79 288 C-88.45721986 288.39551702 -97.91156078 288.69670452 -107.3752718 288.88080692 C-111.77115459 288.96921998 -116.16134871 289.08884674 -120.55395508 289.2824707 C-148.93182611 290.50150624 -148.93182611 290.50150624 -155.64559937 286.37322998 C-159.52013848 282.52280613 -161.60011681 278.20695733 -163.27809143 273.06065369 C-164.31730186 270.09427692 -165.96277447 267.61196998 -167.6875 265 C-171.59231732 258.19232089 -174.85203095 251.08161695 -178.10839844 243.94775391 C-178.88756925 242.24561131 -179.6808885 240.54995967 -180.4765625 238.85546875 C-187.1682839 224.50726857 -192.95264014 208.62063441 -195.640625 192.9765625 C-196.00982638 190.74382343 -196.00982638 190.74382343 -197 187.625 C-199.71003114 177.80113712 -200.58920755 167.5470457 -201.625 157.4375 C-201.82609375 155.5822168 -201.82609375 155.5822168 -202.03125 153.68945312 C-203.27390769 141.70034244 -203.05336396 130.41313414 -201.75 118.4375 C-201.61795166 117.21474365 -201.48590332 115.9919873 -201.34985352 114.73217773 C-200.04144942 103.28947965 -198.44056214 91.7010268 -194 81 C-193.58934028 79.56666512 -193.19396623 78.12887913 -192.8125 76.6875 C-190.62325778 69.17338219 -187.22196557 62.11480615 -184 55 C-183.34 55 -182.68 55 -182 55 C-181.89816406 54.28199219 -181.79632813 53.56398438 -181.69140625 52.82421875 C-179.50627521 43.898514 -171.82260602 35.88225477 -166 29 C-164.98486328 27.78183594 -164.98486328 27.78183594 -163.94921875 26.5390625 C-145.98663126 5.71953696 -122.63491338 -6.98317371 -96 -13 C-94.91332031 -13.24621094 -93.82664062 -13.49242187 -92.70703125 -13.74609375 C-62.09572603 -19.25993134 -27.88815728 -13.40331104 0 0 Z " fill="#FE0000" transform="translate(245,29)"/>
<path d="M0 0 C-2.79278607 2.45765174 -5.27097831 3.42251135 -8.8359375 4.35546875 C-24.42659448 8.99889547 -39.2506625 17.95402687 -51.75 28.26953125 C-54 30 -54 30 -56 30 C-56.226875 30.5775 -56.45375 31.155 -56.6875 31.75 C-58.34400513 34.58972308 -60.42567988 35.95224536 -63 38 C-64.60982311 39.83132212 -66.14927029 41.70198591 -67.66796875 43.609375 C-68.10753906 44.06828125 -68.54710938 44.5271875 -69 45 C-69.66 45 -70.32 45 -71 45 C-71.12955078 45.82371094 -71.12955078 45.82371094 -71.26171875 46.6640625 C-72.23240942 49.73534831 -73.87443585 51.80769424 -75.8125 54.375 C-80.64121163 60.80724251 -84.67125389 67.06736205 -88 74.375 C-88.66567751 75.82076835 -89.33234155 77.26608288 -90 78.7109375 C-90.32943604 79.43047607 -90.65887207 80.15001465 -90.99829102 80.89135742 C-91.94670736 82.8878166 -92.97899513 84.81651989 -94.02734375 86.76171875 C-96.69214877 92.06008536 -98.07331663 97.72050089 -99.5625 103.4375 C-100.01810303 105.1690332 -100.01810303 105.1690332 -100.48291016 106.93554688 C-104.02160604 120.63150438 -106.26367178 133.74230627 -106.7890625 147.87890625 C-106.90291567 150.69460833 -107.14986853 153.45192222 -107.515625 156.24609375 C-108.24810088 161.92278185 -108.27692243 167.39096623 -107.5 173.0625 C-107.13464514 175.93966955 -106.95816421 178.44674854 -107 181.3125 C-107.19434831 184.94400133 -107.19434831 184.94400133 -106 188 C-105.80787729 189.71239809 -105.61934522 191.42533066 -105.45507812 193.140625 C-104.39089178 204.08654171 -102.06444065 214.6909497 -99.59399414 225.39428711 C-99.02633165 227.88448922 -98.4948599 230.38047975 -97.96484375 232.87890625 C-97.26195454 236.04931023 -96.36828753 238.95359196 -95.0625 241.9375 C-93.66726142 245.14033512 -92.59589399 248.33100771 -91.6328125 251.68359375 C-90.06249329 257.00750307 -88.03021003 262.04159129 -85.8125 267.125 C-85.41595215 268.03878418 -85.0194043 268.95256836 -84.61083984 269.89404297 C-78.3525799 284.17545706 -71.0643045 297.64959088 -63.10986328 311.05566406 C-62.00127727 312.99776238 -61.00007088 314.99985824 -60 317 C-72.54 317 -85.08 317 -98 317 C-107.27694256 300.76535052 -107.27694256 300.76535052 -110.6875 292.9375 C-111.06704834 292.07592285 -111.44659668 291.2143457 -111.83764648 290.32666016 C-112.90365465 287.88935188 -113.95524384 285.44647956 -115 283 C-115.46148437 281.92621094 -115.92296875 280.85242188 -116.3984375 279.74609375 C-122.85860788 263.81245205 -127.84911088 246.89332118 -131 230 C-131.3377009 228.40291353 -131.67914928 226.80661689 -132.0234375 225.2109375 C-132.39091855 223.47402041 -132.75810664 221.73704132 -133.125 220 C-133.29612305 219.21705566 -133.46724609 218.43411133 -133.64355469 217.62744141 C-136.34577597 204.49658769 -136.16111634 191.11199077 -136.13037109 177.76855469 C-136.12500873 175.00450152 -136.13034998 172.24061078 -136.13671875 169.4765625 C-136.14534246 150.69076131 -134.93274062 132.98445138 -129 115 C-128.64035156 113.86046875 -128.28070313 112.7209375 -127.91015625 111.546875 C-120.48330804 88.48330804 -120.48330804 88.48330804 -116 84 C-115.608125 83.030625 -115.21625 82.06125 -114.8125 81.0625 C-105.31111646 58.31534532 -84.20568051 38.29321086 -64 25 C-63.40928711 24.6076416 -62.81857422 24.2152832 -62.20996094 23.81103516 C-48.41604066 14.7727259 -33.31297579 8.27770976 -17.75 2.9375 C-16.89325684 2.63827637 -16.03651367 2.33905273 -15.15380859 2.03076172 C-9.89221044 0.30104885 -5.53632083 -0.29977774 0 0 Z " fill="#009731" transform="translate(137,0)"/>
<path d="M0 0 C5.76169073 -0.07484211 11.52309084 -0.12892549 17.28515625 -0.16479492 C19.2402846 -0.1797675 21.19538003 -0.20015281 23.15039062 -0.22631836 C50.66104251 -0.5849695 50.66104251 -0.5849695 58 6 C58 6.66 58 7.32 58 8 C58.62463135 8.2475 59.2492627 8.495 59.89282227 8.75 C63.11266547 10.66004486 63.41350485 12.97573453 64.43310547 16.44140625 C65.3628175 20.63752258 65.57398498 24.7115917 65.5625 29 C65.5615332 29.877771 65.56056641 30.75554199 65.55957031 31.65991211 C65.39835219 37.57915707 64.56255479 41.75356351 60.703125 46.44140625 C58.88854886 48.10199313 56.99995138 49.56959999 55 51 C55.9075 51.61875 56.815 52.2375 57.75 52.875 C62.79809304 57.17308216 64.74436214 62.92315321 65.28515625 69.43212891 C65.32161528 73.25374403 65.25067224 77.05532551 65.125 80.875 C64.89337071 89.42812602 64.92861911 97.40066151 66.65576172 105.80908203 C66.82615967 106.89358643 66.82615967 106.89358643 67 108 C64.45166146 110.54833854 57.54813119 109.28302413 54.125 109.3125 C53.00996094 109.34150391 51.89492187 109.37050781 50.74609375 109.40039062 C49.67746094 109.40876953 48.60882813 109.41714844 47.5078125 109.42578125 C46.52441895 109.44036377 45.54102539 109.45494629 44.52783203 109.4699707 C42 109 42 109 40.23022461 107.17700195 C35.40929232 98.64589395 36.88143849 88.40350901 37.11645508 78.95605469 C37.16453063 76.86914924 37.19449871 74.78256711 37.22265625 72.6953125 C37.25109619 71.45797363 37.27953613 70.22063477 37.30883789 68.94580078 C37.20692139 67.97368652 37.10500488 67.00157227 37 66 C34.09907498 64.06604999 33.10325263 63.69868059 29.8125 63.375 C27.9253125 63.189375 27.9253125 63.189375 26 63 C26.00222061 63.56154282 26.00444122 64.12308563 26.00672913 64.7016449 C26.02878306 70.52480435 26.04390705 76.34795201 26.05493164 82.17114258 C26.05997308 84.34692873 26.06680607 86.52271147 26.07543945 88.69848633 C26.08751338 91.81853067 26.09323005 94.93853038 26.09765625 98.05859375 C26.10281754 99.03775253 26.10797882 100.01691132 26.11329651 101.02574158 C26.11340981 102.37702904 26.11340981 102.37702904 26.11352539 103.75561523 C26.115746 104.55281479 26.11796661 105.35001434 26.12025452 106.17137146 C26 108 26 108 25 109 C21.02724185 109.25256877 17.04233825 109.18522451 13.0625 109.1875 C11.37737305 109.20586914 11.37737305 109.20586914 9.65820312 109.22460938 C8.58634766 109.22654297 7.51449219 109.22847656 6.41015625 109.23046875 C4.92721069 109.23663208 4.92721069 109.23663208 3.41430664 109.24291992 C1 109 1 109 -1 107 C-1.24888897 105.11966705 -1.24888897 105.11966705 -1.24723816 102.78674316 C-1.25143265 101.90339798 -1.25562714 101.0200528 -1.25994873 100.10993958 C-1.25432922 99.13844467 -1.24870972 98.16694977 -1.24291992 97.16601562 C-1.24481827 96.14481125 -1.24671661 95.12360687 -1.24867249 94.07145691 C-1.25238871 90.68297745 -1.24166397 87.29471053 -1.23046875 83.90625 C-1.22927731 81.55977402 -1.22882371 79.21329756 -1.2290802 76.86682129 C-1.22751387 71.94389876 -1.21921277 67.0210488 -1.20581055 62.09814453 C-1.18882052 55.77592259 -1.18499613 49.45378049 -1.18575573 43.13153839 C-1.18548428 38.28468051 -1.1800071 33.43784021 -1.17275429 28.59098816 C-1.16956365 26.25929396 -1.1675993 23.92759776 -1.16686058 21.59590149 C-1.1647012 18.34189432 -1.15596563 15.08797317 -1.14526367 11.83398438 C-1.14571686 10.86248947 -1.14617004 9.89099457 -1.14663696 8.89006042 C-1.14237198 8.00671524 -1.13810699 7.12337006 -1.13371277 6.21325684 C-1.13203692 5.44339195 -1.13036108 4.67352707 -1.12863445 3.88033295 C-1 2 -1 2 0 0 Z M26 21 C26 27.93 26 34.86 26 42 C34.43733663 42.97618706 34.43733663 42.97618706 37.625 39.75 C39.57195046 34.44013511 39.32160217 29.48425331 38 24 C37.01 23.01 36.02 22.02 35 21 C32.03 21 29.06 21 26 21 Z " fill="#000000" transform="translate(79,391)"/>
<path d="M0 0 C0 0.66 0 1.32 0 2 C0.66 2 1.32 2 2 2 C2 2.66 2 3.32 2 4 C2.66 4 3.32 4 4 4 C8.60345178 14.60795409 9.2186195 25.81529723 6 37 C3.66687917 40.78010442 1.01528717 43.99235641 -3 46 C-2.52949219 46.35191406 -2.05898438 46.70382812 -1.57421875 47.06640625 C-0.95160156 47.56011719 -0.32898438 48.05382812 0.3125 48.5625 C1.23482422 49.27599609 1.23482422 49.27599609 2.17578125 50.00390625 C6.88074382 55.15216294 7.44775185 60.87750538 7.4765625 67.53125 C7.49214203 68.32599731 7.50772156 69.12074463 7.52377319 69.9395752 C7.57094756 72.45970724 7.59892158 74.97956934 7.625 77.5 C7.66170012 80.02023584 7.70251802 82.54032599 7.74765015 85.0604248 C7.77450122 86.6219424 7.7960098 88.18356458 7.81118774 89.74523926 C7.86076629 93.21233176 8.03197562 96.54302159 8.57568359 99.97070312 C8.71570801 100.97037109 8.85573242 101.97003906 9 103 C6.44057144 105.55942856 -0.43878455 104.33160348 -3.875 104.375 C-4.99003906 104.41238281 -6.10507812 104.44976562 -7.25390625 104.48828125 C-8.32253906 104.49988281 -9.39117187 104.51148438 -10.4921875 104.5234375 C-11.96727783 104.5531665 -11.96727783 104.5531665 -13.47216797 104.58349609 C-16 104 -16 104 -17.80078125 101.68115234 C-21.67331311 93.02314238 -20.00140277 82.14684871 -19.78515625 72.9140625 C-19.77097656 71.69976562 -19.75679688 70.48546875 -19.7421875 69.234375 C-19.7201123 68.13319336 -19.69803711 67.03201172 -19.67529297 65.89746094 C-20.05662715 62.4946985 -20.37292381 61.21520134 -23 59 C-25.70303904 58.36648629 -28.20996359 58.18295321 -31 58 C-30.99777939 58.56154282 -30.99555878 59.12308563 -30.99327087 59.7016449 C-30.97121694 65.52480435 -30.95609295 71.34795201 -30.94506836 77.17114258 C-30.94002692 79.34692873 -30.93319393 81.52271147 -30.92456055 83.69848633 C-30.91248662 86.81853067 -30.90676995 89.93853038 -30.90234375 93.05859375 C-30.89718246 94.03775253 -30.89202118 95.01691132 -30.88670349 96.02574158 C-30.88659019 97.37702904 -30.88659019 97.37702904 -30.88647461 98.75561523 C-30.884254 99.55281479 -30.88203339 100.35001434 -30.87974548 101.17137146 C-31 103 -31 103 -32 104 C-33.84159023 104.09959621 -35.68696967 104.13080411 -37.53125 104.1328125 C-38.65144531 104.13410156 -39.77164062 104.13539063 -40.92578125 104.13671875 C-42.10527344 104.13285156 -43.28476562 104.12898438 -44.5 104.125 C-46.26923828 104.13080078 -46.26923828 104.13080078 -48.07421875 104.13671875 C-49.19441406 104.13542969 -50.31460937 104.13414062 -51.46875 104.1328125 C-52.50451172 104.13168457 -53.54027344 104.13055664 -54.60742188 104.12939453 C-57 104 -57 104 -58 103 C-58.0954693 101.59588683 -58.12188529 100.18700191 -58.12025452 98.77964783 C-58.12162918 97.86954453 -58.12300385 96.95944122 -58.12442017 96.02175903 C-58.12082489 95.01547455 -58.11722961 94.00919006 -58.11352539 92.97241211 C-58.11367142 91.91888046 -58.11381744 90.86534882 -58.1139679 89.77989197 C-58.11326826 86.279022 -58.10547348 82.77820448 -58.09765625 79.27734375 C-58.09579225 76.85738657 -58.09436826 74.43742901 -58.09336853 72.01747131 C-58.08954192 65.63384976 -58.07971041 59.25025079 -58.06866455 52.86663818 C-58.05845351 46.35836086 -58.05387157 39.8500799 -58.04882812 33.34179688 C-58.03808827 20.56118825 -58.02120112 7.78059533 -58 -5 C-53.00595445 -5.22042205 -48.01169482 -5.41652358 -43.01586914 -5.59204102 C-41.32356457 -5.65469522 -39.63147435 -5.72350369 -37.93969727 -5.79907227 C-24.69810071 -6.3843579 -11.9832166 -6.46208231 0 0 Z M-31 16 C-31 22.93 -31 29.86 -31 37 C-23.64080611 37.71098474 -23.64080611 37.71098474 -20.52734375 35.44140625 C-18.46483041 32.14454988 -18.50150907 29.80432502 -18.5625 25.9375 C-18.56378906 24.70902344 -18.56507813 23.48054688 -18.56640625 22.21484375 C-18.71221005 18.68154152 -18.71221005 18.68154152 -22 16 C-24.97 16 -27.94 16 -31 16 Z " fill="#000000" transform="translate(424,396)"/>
<path d="M0 0 C8.58 0 17.16 0 26 0 C27.63945963 3.27891925 27.12030178 6.90613534 27.09765625 10.5078125 C27.0962413 11.34843231 27.09482635 12.18905212 27.09336853 13.05514526 C27.08776237 15.74513275 27.07520886 18.43503759 27.0625 21.125 C27.05748579 22.94661338 27.05292275 24.76822807 27.04882812 26.58984375 C27.03779094 31.05992777 27.0205222 35.52994986 27 40 C30.63 40 34.26 40 38 40 C37.99476318 38.85934082 37.98952637 37.71868164 37.98413086 36.54345703 C37.96606131 32.32048321 37.95456081 28.09751282 37.94506836 23.87451172 C37.94003263 22.04507879 37.93320373 20.21564991 37.92456055 18.38623047 C37.91246176 15.76008102 37.90676417 13.13398468 37.90234375 10.5078125 C37.89718246 9.68693146 37.89202118 8.86605042 37.88670349 8.02029419 C37.88612829 2.22774341 37.88612829 2.22774341 39 0 C47.58 0 56.16 0 65 0 C65.0225482 14.06418001 65.04091345 28.12834812 65.05181217 42.19254208 C65.0570417 48.72236233 65.06414061 55.25216963 65.07543945 61.78198242 C65.08626585 68.07781159 65.09227631 74.37362826 65.09487724 80.66946602 C65.09673194 83.07734944 65.1003534 85.48523214 65.10573006 87.89311028 C65.1129372 91.25289286 65.11399108 94.6126231 65.11352539 97.97241211 C65.11712067 98.97869659 65.12071594 99.98498108 65.12442017 101.02175903 C65.1230455 101.93186234 65.12167084 102.84196564 65.12025452 103.77964783 C65.12117631 104.57515517 65.1220981 105.37066252 65.12304783 106.19027615 C65 108 65 108 64 109 C60.02724185 109.25256877 56.04233825 109.18522451 52.0625 109.1875 C50.37737305 109.20586914 50.37737305 109.20586914 48.65820312 109.22460938 C47.58634766 109.22654297 46.51449219 109.22847656 45.41015625 109.23046875 C43.92721069 109.23663208 43.92721069 109.23663208 42.41430664 109.24291992 C40 109 40 109 38 107 C37.75949097 105.08908081 37.75949097 105.08908081 37.77294922 102.73388672 C37.77310028 101.85312469 37.77325134 100.97236267 37.77340698 100.06491089 C37.78372955 99.11278717 37.79405212 98.16066345 37.8046875 97.1796875 C37.8075174 96.20589142 37.81034729 95.23209534 37.81326294 94.22879028 C37.82448087 91.11073651 37.8495883 87.99296732 37.875 84.875 C37.88502772 82.76432706 37.89415393 80.65364962 37.90234375 78.54296875 C37.92442547 73.36186909 37.95896626 68.18098283 38 63 C34.37 63 30.74 63 27 63 C27.00785522 64.98362549 27.00785522 64.98362549 27.01586914 67.00732422 C27.03393281 71.90119758 27.04543704 76.79506797 27.05493164 81.68896484 C27.05996872 83.80941259 27.06679859 85.92985685 27.07543945 88.05029297 C27.08753234 91.09343322 27.09323447 94.13652766 27.09765625 97.1796875 C27.10281754 98.13181122 27.10797882 99.08393494 27.11329651 100.06491089 C27.11340981 101.38605392 27.11340981 101.38605392 27.11352539 102.73388672 C27.115746 103.51110077 27.11796661 104.28831482 27.12025452 105.08908081 C27 107 27 107 26 109 C21.85418113 109.02886751 17.70838784 109.04675327 13.5625 109.0625 C11.78649414 109.07506836 11.78649414 109.07506836 9.97460938 109.08789062 C8.84990234 109.09111328 7.72519531 109.09433594 6.56640625 109.09765625 C5.00321655 109.10551147 5.00321655 109.10551147 3.40844727 109.11352539 C1 109 1 109 0 108 C-0.0954693 106.59588683 -0.12188529 105.18700191 -0.12025452 103.77964783 C-0.12162918 102.86954453 -0.12300385 101.95944122 -0.12442017 101.02175903 C-0.12082489 100.01547455 -0.11722961 99.00919006 -0.11352539 97.97241211 C-0.11367142 96.91888046 -0.11381744 95.86534882 -0.1139679 94.77989197 C-0.11326826 91.279022 -0.10547348 87.77820448 -0.09765625 84.27734375 C-0.09579225 81.85738657 -0.09436826 79.43742901 -0.09336853 77.01747131 C-0.08954192 70.63384976 -0.07971041 64.25025079 -0.06866455 57.86663818 C-0.05845351 51.35836086 -0.05387157 44.8500799 -0.04882812 38.34179688 C-0.03808827 25.56118637 -0.02049032 12.78059859 0 0 Z " fill="#000000" transform="translate(226,391)"/>
<path d="M0 0 C2.44353697 3.0136956 4.13838973 6.60601621 6 10 C6.32774414 10.57927246 6.65548828 11.15854492 6.99316406 11.75537109 C16.81798021 29.13456269 24.73069934 47.73348369 30 67 C30.34417969 68.25167969 30.68835938 69.50335938 31.04296875 70.79296875 C32.1207486 74.84180113 33.08335955 78.91191076 34 83 C34.17418457 83.77408203 34.34836914 84.54816406 34.52783203 85.34570312 C39.33288689 107.21458382 41.1949895 129.66791287 39.25 152 C39.16492188 152.9782373 39.07984375 153.95647461 38.9921875 154.96435547 C37.89549124 166.45187833 36.3020778 178.24480551 32 189 C16.49 189 0.98 189 -15 189 C-13 185 -13 185 -11.08203125 181.84765625 C-1.52438929 166.07691238 3.47964226 149.18535043 6 131 C6.185625 129.93910156 6.37125 128.87820313 6.5625 127.78515625 C7.17859133 122.45486612 7.14420354 117.1734884 7.125 111.8125 C7.12886719 110.75224609 7.13273437 109.69199219 7.13671875 108.59960938 C7.12481919 98.83601659 6.89754612 89.37441392 4 80 C3.73728757 78.46044867 3.48911708 76.91839209 3.25 75.375 C-0.33311717 55.45069693 -7.3129768 35.22355147 -18.17749023 18.07910156 C-19.27913249 15.29442199 -18.9708438 13.80726941 -18 11 C-16.55712891 9.42260742 -16.55712891 9.42260742 -14.7265625 8.10546875 C-14.0665625 7.62529297 -13.4065625 7.14511719 -12.7265625 6.65039062 C-12.03304688 6.16763672 -11.33953125 5.68488281 -10.625 5.1875 C-9.93921875 4.68541016 -9.2534375 4.18332031 -8.546875 3.66601562 C-3.4194409 0 -3.4194409 0 0 0 Z " fill="#FE0000" transform="translate(353,128)"/>
<path d="M0 0 C11.22 0 22.44 0 34 0 C35.87916034 6.2638678 37.43170531 11.63743165 38.46484375 17.94921875 C38.71355818 19.42906284 38.96343902 20.90871127 39.21435547 22.38818359 C39.34171082 23.14500427 39.46906616 23.90182495 39.60028076 24.68157959 C40.27136061 28.57392471 41.01240705 32.45258758 41.75390625 36.33203125 C41.90217865 37.11101776 42.05045105 37.89000427 42.20321655 38.69259644 C42.80827512 41.86885712 43.41560027 45.04468228 44.02319336 48.22045898 C45.63532684 56.6548054 47.2023478 65.08507433 48.58178711 73.5612793 C49.09847216 76.57421975 49.76621077 79.53293919 50.5 82.5 C52.62121068 91.49091836 54 99.72537907 54 109 C45.42 109 36.84 109 28 109 C25.05131462 101.136839 24.70248354 97.93377215 25 90 C20.05 90.33 15.1 90.66 10 91 C9.87625 92.505625 9.7525 94.01125 9.625 95.5625 C8.54160095 106.45839905 8.54160095 106.45839905 6 109 C4.23140807 109.09946453 2.45888549 109.13080217 0.6875 109.1328125 C-0.38757813 109.13410156 -1.46265625 109.13539063 -2.5703125 109.13671875 C-3.70210937 109.13285156 -4.83390625 109.12898438 -6 109.125 C-7.13179687 109.12886719 -8.26359375 109.13273437 -9.4296875 109.13671875 C-10.50476563 109.13542969 -11.57984375 109.13414062 -12.6875 109.1328125 C-13.68136719 109.13168457 -14.67523438 109.13055664 -15.69921875 109.12939453 C-18 109 -18 109 -19 108 C-19.24267606 102.85789105 -18.64103459 98.03435919 -17.6875 93 C-17.55069824 92.25145752 -17.41389648 91.50291504 -17.27294922 90.73168945 C-16.43842598 86.20696388 -15.54348527 81.69595054 -14.625 77.1875 C-13.19836413 70.16519909 -11.93581235 63.1185184 -10.6875 56.0625 C-8.90611828 46.00575928 -7.08432409 35.95780804 -5.20645142 25.91867065 C-4.9469265 24.53118034 -4.68794088 23.14358903 -4.42953491 21.75588989 C-4.0653891 19.80178823 -3.69874522 17.84815259 -3.33203125 15.89453125 C-3.12296143 14.77925049 -2.9138916 13.66396973 -2.69848633 12.51489258 C-1.86670415 8.32923439 -0.92575174 4.16588283 0 0 Z M17 30 C15.35 42.54 13.7 55.08 12 68 C15.3 68 18.6 68 22 68 C20.68 55.46 19.36 42.92 18 30 C17.67 30 17.34 30 17 30 Z " fill="#000000" transform="translate(20,391)"/>
<path d="M0 0 C5.81912176 6.08362729 9.12110256 12.31520614 9.1328125 20.73046875 C9.13410156 21.61541016 9.13539063 22.50035156 9.13671875 23.41210938 C9.13285156 24.32798828 9.12898438 25.24386719 9.125 26.1875 C9.12886719 27.11498047 9.13273437 28.04246094 9.13671875 28.99804688 C9.13542969 29.87912109 9.13414062 30.76019531 9.1328125 31.66796875 C9.13168457 32.47516357 9.13055664 33.2823584 9.12939453 34.11401367 C9 36 9 36 8 37 C4.02724185 37.25256877 0.04233825 37.18522451 -3.9375 37.1875 C-5.06091797 37.19974609 -6.18433594 37.21199219 -7.34179688 37.22460938 C-8.41365234 37.22654297 -9.48550781 37.22847656 -10.58984375 37.23046875 C-12.07278931 37.23663208 -12.07278931 37.23663208 -13.58569336 37.24291992 C-16 37 -16 37 -18 35 C-18.11858246 31.3535893 -18.04152918 27.76456364 -17.921875 24.12109375 C-17.87988326 22.0809951 -17.93367634 20.03945262 -18 18 C-19.95633975 15.58878141 -19.95633975 15.58878141 -23.625 15.875 C-25.295625 15.936875 -25.295625 15.936875 -27 16 C-28.05880919 19.17642756 -28.13311616 21.44778119 -28.14526367 24.78491211 C-28.15164352 25.97301987 -28.15802338 27.16112762 -28.16459656 28.38523865 C-28.16570938 29.66963333 -28.1668222 30.95402802 -28.16796875 32.27734375 C-28.17129715 33.59537491 -28.17462555 34.91340607 -28.17805481 36.27137756 C-28.18404089 39.06137918 -28.18589523 41.85134984 -28.18530273 44.64135742 C-28.1852011 48.2135953 -28.19885707 51.78563449 -28.21607494 55.35782528 C-28.22987702 58.76850119 -28.22928386 62.17914026 -28.23046875 65.58984375 C-28.23765427 66.8722142 -28.24483978 68.15458466 -28.25224304 69.47581482 C-28.24916641 70.66707474 -28.24608978 71.85833466 -28.24291992 73.08569336 C-28.24434494 74.13365585 -28.24576996 75.18161835 -28.24723816 76.26133728 C-27.99452965 79.06059522 -27.61385761 80.70634444 -26 83 C-22.94091587 83.81584568 -22.94091587 83.81584568 -20 84 C-17.45093286 79.17071264 -17.84027971 74.61122071 -18 69.3125 C-18.05091419 67.60051044 -18.09301654 65.88822908 -18.125 64.17578125 C-18.14820313 63.42208252 -18.17140625 62.66838379 -18.1953125 61.8918457 C-18 60 -18 60 -16 58 C-13.58569336 57.75708008 -13.58569336 57.75708008 -10.58984375 57.76953125 C-9.51798828 57.77146484 -8.44613281 57.77339844 -7.34179688 57.77539062 C-6.21837891 57.78763672 -5.09496094 57.79988281 -3.9375 57.8125 C-2.24657227 57.8134668 -2.24657227 57.8134668 -0.52148438 57.81445312 C7.85986683 57.85986683 7.85986683 57.85986683 9 59 C9.31200319 62.80385681 9.27869861 66.6224494 9.3125 70.4375 C9.35600586 72.02208008 9.35600586 72.02208008 9.40039062 73.63867188 C9.46783571 82.0589318 8.09969686 89.12537893 2.75 95.8125 C-6.00303501 102.77514149 -12.21887405 104.19983097 -23.3125 104.25 C-25.00536133 104.2809375 -25.00536133 104.2809375 -26.73242188 104.3125 C-35.50077337 104.35378712 -40.79412255 102.5850506 -47.328125 96.73046875 C-55.96989074 87.78583738 -56.30487917 77.46809034 -56.265625 65.62890625 C-56.26753845 64.35200424 -56.2694519 63.07510223 -56.27142334 61.75950623 C-56.27278038 59.06731416 -56.27013446 56.3754889 -56.26074219 53.68334961 C-56.24936012 50.25633108 -56.25591016 46.82962636 -56.26788712 43.40261936 C-56.27691066 40.10303759 -56.27056577 36.80349215 -56.265625 33.50390625 C-56.26967346 32.28490128 -56.27372192 31.0658963 -56.27789307 29.80995178 C-56.22398344 19.93566389 -55.58412534 10.82461273 -49 3 C-35.57944354 -9.57867653 -15.12130064 -10.58491045 0 0 Z " fill="#000000" transform="translate(208,396)"/>
<path d="M0 0 C18.48 0 36.96 0 56 0 C56 7.59 56 15.18 56 23 C46.1 23 36.2 23 26 23 C26 29.27 26 35.54 26 42 C34.58 42 43.16 42 52 42 C52.020625 45.609375 52.04125 49.21875 52.0625 52.9375 C52.071604 54.07695068 52.08070801 55.21640137 52.09008789 56.39038086 C52.09258545 57.28120361 52.09508301 58.17202637 52.09765625 59.08984375 C52.10289307 60.00628662 52.10812988 60.92272949 52.11352539 61.86694336 C52 64 52 64 51 65 C49.21928754 65.08726223 47.4351686 65.10699041 45.65234375 65.09765625 C44.57275391 65.09443359 43.49316406 65.09121094 42.38085938 65.08789062 C41.24455078 65.07951172 40.10824219 65.07113281 38.9375 65.0625 C37.79732422 65.05798828 36.65714844 65.05347656 35.48242188 65.04882812 C32.65492582 65.0369976 29.82745655 65.0190615 27 65 C26.67 71.93 26.34 78.86 26 86 C36.23 86 46.46 86 57 86 C57.020625 89.609375 57.04125 93.21875 57.0625 96.9375 C57.071604 98.07695068 57.08070801 99.21640137 57.09008789 100.39038086 C57.09258545 101.28120361 57.09508301 102.17202637 57.09765625 103.08984375 C57.10289307 104.00628662 57.10812988 104.92272949 57.11352539 105.86694336 C57 108 57 108 56 109 C54.28681054 109.09881593 52.56955197 109.12798969 50.85351562 109.12939453 C49.75567749 109.13254669 48.65783936 109.13569885 47.5267334 109.13894653 C46.33197388 109.1369223 45.13721436 109.13489807 43.90625 109.1328125 C42.68925415 109.13376923 41.4722583 109.13472595 40.21838379 109.13571167 C37.63924101 109.13639372 35.06009653 109.13453772 32.48095703 109.13037109 C28.51721364 109.12502322 24.55358358 109.13031529 20.58984375 109.13671875 C18.09114558 109.13605797 15.59244748 109.13477682 13.09375 109.1328125 C11.30161072 109.13584885 11.30161072 109.13584885 9.4732666 109.13894653 C8.37542847 109.13579437 7.27759033 109.13264221 6.14648438 109.12939453 C4.68873596 109.12820114 4.68873596 109.12820114 3.20153809 109.12698364 C1 109 1 109 0 108 C-0.0954693 106.59588683 -0.12188529 105.18700191 -0.12025452 103.77964783 C-0.12162918 102.86954453 -0.12300385 101.95944122 -0.12442017 101.02175903 C-0.12082489 100.01547455 -0.11722961 99.00919006 -0.11352539 97.97241211 C-0.11367142 96.91888046 -0.11381744 95.86534882 -0.1139679 94.77989197 C-0.11326826 91.279022 -0.10547348 87.77820448 -0.09765625 84.27734375 C-0.09579225 81.85738657 -0.09436826 79.43742901 -0.09336853 77.01747131 C-0.08954192 70.63384976 -0.07971041 64.25025079 -0.06866455 57.86663818 C-0.05665966 50.21500872 -0.05204887 42.56337172 -0.04621124 34.91173553 C-0.03649873 23.27447463 -0.01734316 11.63726332 0 0 Z " fill="#000000" transform="translate(300,391)"/>
<path d="M0 0 C9.24 0 18.48 0 28 0 C29.875 10.5625 29.875 10.5625 30.45263672 13.84985352 C31.37923898 19.00496775 32.44257335 23.99799459 34 29 C34.103125 27.845 34.20625 26.69 34.3125 25.5 C34.83065198 20.85883872 35.60143271 16.27987958 36.4375 11.6875 C36.55971924 10.99398438 36.68193848 10.30046875 36.80786133 9.5859375 C37.48538311 5.9584005 38.32593052 3.34813896 40 0 C48.58 0 57.16 0 66 0 C64.88148585 10.06662736 64.88148585 10.06662736 63.25390625 14.08984375 C61.54427882 18.52252561 59.98307243 22.98221525 58.52734375 27.50390625 C58.31590729 28.15926361 58.10447083 28.81462097 57.8866272 29.48983765 C57.45375987 30.83466719 57.02175027 32.17977311 56.59057617 33.52514648 C55.93709714 35.56375677 55.28032419 37.60128342 54.62304688 39.63867188 C52.54464842 46.09433759 50.49815534 52.55663797 48.58032227 59.06225586 C48.08452467 60.71776512 47.54649119 62.36052644 47 64 C46.92356619 65.416903 46.90262438 66.83722605 46.91821289 68.25610352 C46.9247438 69.11031387 46.93127472 69.96452423 46.93800354 70.84461975 C46.94943893 71.7634343 46.96087433 72.68224884 46.97265625 73.62890625 C46.98529768 75.56965971 46.99765899 77.51041501 47.00976562 79.45117188 C47.03464236 82.5149506 47.06267522 85.57863448 47.09594727 88.64233398 C47.12604279 91.59619779 47.14388784 94.5499386 47.16015625 97.50390625 C47.17361588 98.42474503 47.1870755 99.3455838 47.20094299 100.29432678 C47.20432175 101.14538498 47.2077005 101.99644318 47.21118164 102.87329102 C47.22236778 103.99889183 47.22236778 103.99889183 47.23377991 105.14723206 C47 107 47 107 45 109 C42.58569336 109.24291992 42.58569336 109.24291992 39.58984375 109.23046875 C38.51798828 109.22853516 37.44613281 109.22660156 36.34179688 109.22460938 C35.21837891 109.21236328 34.09496094 109.20011719 32.9375 109.1875 C31.24657227 109.1865332 31.24657227 109.1865332 29.52148438 109.18554688 C21.14013317 109.14013317 21.14013317 109.14013317 20 108 C19.88877408 104.99000848 19.83828306 101.99918254 19.82421875 98.98828125 C19.80097958 97.0956925 19.77686072 95.2031144 19.75195312 93.31054688 C19.7171486 90.33123087 19.68768177 87.35229518 19.67407227 84.37280273 C19.60926954 72.50592897 19.06108194 62.24626733 15 51 C14.19125622 48.56862272 13.38537106 46.13629312 12.58203125 43.703125 C12.16131348 42.45853516 11.7405957 41.21394531 11.30712891 39.93164062 C9.19617295 33.63862455 7.27486341 27.2860785 5.3503418 20.93408203 C4.67492322 18.70855918 3.99279821 16.48515524 3.31054688 14.26171875 C2.87719926 12.83606051 2.44424111 11.41028382 2.01171875 9.984375 C1.80866623 9.32507996 1.60561371 8.66578491 1.39640808 7.98651123 C0.559071 5.2023053 0 2.92770965 0 0 Z " fill="#000000" transform="translate(433,391)"/>
<path d="M0 0 C0.66 0.66 1.32 1.32 2 2 C2.33 1.34 2.66 0.68 3 0 C5.64 0 8.28 0 11 0 C11 9.24 11 18.48 11 28 C13.31 28 15.62 28 18 28 C18.08040527 27.3294458 18.16081055 26.6588916 18.24365234 25.96801758 C18.61372944 22.91527749 18.99425799 19.86392751 19.375 16.8125 C19.50132812 15.75740234 19.62765625 14.70230469 19.7578125 13.61523438 C19.88671875 12.59365234 20.015625 11.57207031 20.1484375 10.51953125 C20.26364746 9.58214111 20.37885742 8.64475098 20.49755859 7.67895508 C21.01514335 4.91925756 21.87302406 2.56519253 23 0 C25.97 0 28.94 0 32 0 C32.99 4.62 33.98 9.24 35 14 C35.144375 12.06125 35.28875 10.1225 35.4375 8.125 C35.875 2.25 35.875 2.25 37 0 C39.97 0 42.94 0 46 0 C46.8441938 3.97977076 47.44687265 7.97007218 48 12 C48.13277344 11.21753906 48.26554687 10.43507813 48.40234375 9.62890625 C48.57894531 8.61699219 48.75554687 7.60507812 48.9375 6.5625 C49.11152344 5.55316406 49.28554688 4.54382813 49.46484375 3.50390625 C50 1 50 1 51 0 C53.86267567 -0.07325168 56.700719 -0.09238205 59.5625 -0.0625 C60.36880859 -0.05798828 61.17511719 -0.05347656 62.00585938 -0.04882812 C64.00393756 -0.03700518 66.00197783 -0.01906914 68 0 C68.495 1.485 68.495 1.485 69 3 C69.45375 2.525625 69.9075 2.05125 70.375 1.5625 C72.64338303 -0.61863753 73.69351322 -0.98001173 76.875 -1.1875 C81.57480315 -0.90551181 81.57480315 -0.90551181 84 1 C86.25593933 5.61930435 85.99390182 9.03049088 85 14 C83.02 13.67 81.04 13.34 79 13 C78.01 10.03 78.01 10.03 77 7 C75.79504091 7.98407311 75.79504091 7.98407311 75.88647461 9.85766602 C75.89171143 10.64842529 75.89694824 11.43918457 75.90234375 12.25390625 C75.90556641 13.10791016 75.90878906 13.96191406 75.91210938 14.84179688 C75.92048828 15.73962891 75.92886719 16.63746094 75.9375 17.5625 C75.94201172 18.46419922 75.94652344 19.36589844 75.95117188 20.29492188 C75.96299775 22.53001314 75.9794778 24.76497437 76 27 C76.66 27 77.32 27 78 27 C78.33 25.02 78.66 23.04 79 21 C80.99954746 20.95745644 83.00041636 20.95919217 85 21 C85.33 21.33 85.66 21.66 86 22 C85.984375 24.1796875 85.984375 24.1796875 85.75 26.875 C85.68296875 27.75929688 85.6159375 28.64359375 85.546875 29.5546875 C84.92266765 32.3457861 84.2610385 33.29610735 82 35 C77.67799062 36.22143743 74.94961382 36.1942299 71 34 C70.34 33.01 69.68 32.02 69 31 C68.67 32.32 68.34 33.64 68 35 C60.33333333 35 52.66666667 35 45 35 C45 34.34 45 33.68 45 33 C44.34 33 43.68 33 43 33 C43 33.66 43 34.32 43 35 C38.71 35 34.42 35 30 35 C29.505 32.03 29.505 32.03 29 29 C27.68 29 26.36 29 25 29 C25.020625 29.804375 25.04125 30.60875 25.0625 31.4375 C25 34 25 34 24 35 C20.69483066 35.25035974 17.37603959 35.18521952 14.0625 35.1875 C13.12986328 35.19974609 12.19722656 35.21199219 11.23632812 35.22460938 C10.34494141 35.22654297 9.45355469 35.22847656 8.53515625 35.23046875 C7.714104 35.23457764 6.89305176 35.23868652 6.04711914 35.24291992 C4 35 4 35 2 33 C0.700625 33.7734375 0.700625 33.7734375 -0.625 34.5625 C-4.44729048 36.19051261 -6.06675226 36.13627157 -10 35 C-10.99 34.34 -11.98 33.68 -13 33 C-13.33 33.66 -13.66 34.32 -14 35 C-16.31 35 -18.62 35 -21 35 C-22.47712785 32.0457443 -22.12989998 29.38739796 -22.1328125 26.09375 C-22.13376923 25.41324585 -22.13472595 24.7327417 -22.13571167 24.03161621 C-22.13639231 22.59252836 -22.13454607 21.15343743 -22.13037109 19.71435547 C-22.12502115 17.50871907 -22.13031991 15.3032863 -22.13671875 13.09765625 C-22.13605795 11.70052038 -22.13477674 10.30338464 -22.1328125 8.90625 C-22.13168457 7.63072266 -22.13055664 6.35519531 -22.12939453 5.04101562 C-22 2 -22 2 -21 0 C-14.25 -0.125 -14.25 -0.125 -12 1 C-10.9171875 0.505 -10.9171875 0.505 -9.8125 0 C-6.17093883 -1.2947773 -3.7323734 -0.84506567 0 0 Z M-5 6 C-5.85573613 8.38346137 -6.22877115 9.50485148 -5.14453125 11.8515625 C-1.84241393 16.36429866 -1.84241393 16.36429866 3 19 C3 16.69 3 14.38 3 12 C2.21625 11.938125 1.4325 11.87625 0.625 11.8125 C-0.24125 11.544375 -1.1075 11.27625 -2 11 C-3.3125 8.4375 -3.3125 8.4375 -4 6 C-4.33 6 -4.66 6 -5 6 Z M68 6 C69 8 69 8 69 8 Z M-13 15 C-13 17.64 -13 20.28 -13 23 C-11.02 23 -9.04 23 -7 23 C-6.67 24.65 -6.34 26.3 -6 28 C-5.34 28 -4.68 28 -4 28 C-3.04497842 26.27523089 -3.04497842 26.27523089 -3 24 C-5.94955185 20.529939 -9.40155384 17.77594418 -13 15 Z M27 18 C26.67 18.99 26.34 19.98 26 21 C26.66 21 27.32 21 28 21 C27.67 20.01 27.34 19.02 27 18 Z " fill="#000000" transform="translate(209,335)"/>
<path d="M0 0 C2 1.5625 2 1.5625 3 4 C3.22365373 6.72025348 3.13700302 9.25993957 3 12 C-1.75 13.125 -1.75 13.125 -4 12 C-4.625 9.4375 -4.625 9.4375 -5 7 C-5.33 7 -5.66 7 -6 7 C-6 9.31 -6 11.62 -6 14 C-3.03 14 -0.06 14 3 14 C3.33 14.99 3.66 15.98 4 17 C4.144375 15.948125 4.28875 14.89625 4.4375 13.8125 C5.16639377 8.87221998 6.02789178 4.60158585 8 0 C10.97 0 13.94 0 17 0 C17.99 5.94 18.98 11.88 20 18 C20.28888213 12.82472415 20.28888213 12.82472415 20.56811523 7.64892578 C20.88888889 2.22222222 20.88888889 2.22222222 22 0 C24.10353495 -0.0810206 26.20795952 -0.13919907 28.3125 -0.1875 C29.48425781 -0.22230469 30.65601563 -0.25710938 31.86328125 -0.29296875 C35 0 35 0 36.91796875 1.51171875 C37.45357422 2.24841797 37.45357422 2.24841797 38 3 C38.33 2.01 38.66 1.02 39 0 C41.31 0 43.62 0 46 0 C46.33 8.91 46.66 17.82 47 27 C47.33 27 47.66 27 48 27 C48.03758423 25.82642944 48.03758423 25.82642944 48.07592773 24.62915039 C48.19149788 21.10675051 48.31439949 17.5846444 48.4375 14.0625 C48.47681641 12.83080078 48.51613281 11.59910156 48.55664062 10.33007812 C48.61948242 8.5753418 48.61948242 8.5753418 48.68359375 6.78515625 C48.72025146 5.70113525 48.75690918 4.61711426 48.79467773 3.50024414 C49 1 49 1 50 0 C51.70772358 -0.08713831 53.41898649 -0.10700007 55.12890625 -0.09765625 C56.68061523 -0.09282227 56.68061523 -0.09282227 58.26367188 -0.08789062 C59.35228516 -0.07951172 60.44089844 -0.07113281 61.5625 -0.0625 C63.2012207 -0.05573242 63.2012207 -0.05573242 64.87304688 -0.04882812 C67.58208495 -0.03699826 70.29101599 -0.02051543 73 0 C73 2.31 73 4.62 73 7 C71.68 7 70.36 7 69 7 C69.00523682 7.81267334 69.01047363 8.62534668 69.01586914 9.46264648 C69.03656994 13.12092322 69.04963803 16.77918767 69.0625 20.4375 C69.07087891 21.71689453 69.07925781 22.99628906 69.08789062 24.31445312 C69.09111328 25.52939453 69.09433594 26.74433594 69.09765625 27.99609375 C69.10289307 29.12200928 69.10812988 30.2479248 69.11352539 31.40795898 C69 34 69 34 68 35 C64.5 35.125 64.5 35.125 61 35 C60 34 60 34 59.88647461 31.40795898 C59.89432983 29.71908569 59.89432983 29.71908569 59.90234375 27.99609375 C59.90717773 26.17368164 59.90717773 26.17368164 59.91210938 24.31445312 C59.92467773 22.39536133 59.92467773 22.39536133 59.9375 20.4375 C59.94201172 19.15423828 59.94652344 17.87097656 59.95117188 16.54882812 C59.96300455 13.36583978 59.97948932 10.18294238 60 7 C59.01 7 58.02 7 57 7 C57.02320313 8.30195313 57.04640625 9.60390625 57.0703125 10.9453125 C57.08907942 12.67186924 57.10727863 14.39843221 57.125 16.125 C57.14175781 16.9809375 57.15851563 17.836875 57.17578125 18.71875 C57.21827608 24.24307778 56.99777505 29.10322618 53.75 33.8125 C51.13111121 35.58960311 49.15480667 35.87628209 46 36 C42.6875 34.5625 42.6875 34.5625 40 33 C39.67 33 39.34 33 39 33 C39 33.66 39 34.32 39 35 C36.69 35 34.38 35 32 35 C30.95023036 31.85069107 30.89868405 29.61185544 30.9375 26.3125 C30.94652344 25.31863281 30.95554687 24.32476562 30.96484375 23.30078125 C30.97644531 22.54152344 30.98804688 21.78226562 31 21 C30.34 21 29.68 21 29 21 C29.01160156 21.84304688 29.02320313 22.68609375 29.03515625 23.5546875 C29.04417969 24.65039062 29.05320312 25.74609375 29.0625 26.875 C29.07410156 27.96554687 29.08570313 29.05609375 29.09765625 30.1796875 C29 33 29 33 28 35 C25.85423363 35.02685938 23.70837355 35.04633088 21.5625 35.0625 C20.36753906 35.07410156 19.17257812 35.08570313 17.94140625 35.09765625 C15 35 15 35 14 34 C13.95936168 32.33382885 13.957279 30.66611905 14 29 C12.68 29 11.36 29 10 29 C9.67 30.98 9.34 32.96 9 35 C5.66666667 35 2.33333333 35 -1 35 C-2.3921875 35.3403125 -2.3921875 35.3403125 -3.8125 35.6875 C-7.892199 36.08747049 -9.66528378 35.34945915 -13 33 C-15.31601712 27.91261324 -15.33392125 23.0420546 -15.3125 17.5625 C-15.32861328 16.74201172 -15.34472656 15.92152344 -15.36132812 15.07617188 C-15.36567817 9.62556585 -14.557492 5.83151813 -12 1 C-8.61204434 -2.01151614 -4.10528409 -1.17667378 0 0 Z M38 6 C39 8 39 8 39 8 Z M29 7 C29 9.31 29 11.62 29 14 C30.64555699 12.77190909 30.64555699 12.77190909 32 11 C31.77242269 8.83700789 31.77242269 8.83700789 31 7 C30.34 7 29.68 7 29 7 Z M38 11 C39 13 39 13 39 13 Z M38 14 C37.3185177 15.89179203 37.3185177 15.89179203 37 18 C37.66 18.66 38.32 19.32 39 20 C39 18.02 39 16.04 39 14 C38.67 14 38.34 14 38 14 Z M11 15 C12 17 12 17 12 17 Z M11 19 C11 19.66 11 20.32 11 21 C11.66 20.67 12.32 20.34 13 20 C12.34 19.67 11.68 19.34 11 19 Z M-7 20 C-7 22.31 -7 24.62 -7 27 C-6.01 27.33 -5.02 27.66 -4 28 C-4 25.69 -4 23.38 -4 21 C-4.99 20.67 -5.98 20.34 -7 20 Z M38 21 C39 23 39 23 39 23 Z " fill="#000000" transform="translate(426,335)"/>
<path d="M0 0 C0.66 0.66 1.32 1.32 2 2 C2.33 1.34 2.66 0.68 3 0 C5.64 0 8.28 0 11 0 C11 3.96 11 7.92 11 12 C11.99 12 12.98 12 14 12 C14 8.04 14 4.08 14 0 C16.31 0 18.62 0 21 0 C21 11.55 21 23.1 21 35 C18.69 35 16.38 35 14 35 C14 30.05 14 25.1 14 20 C13.01 20 12.02 20 11 20 C11 24.95 11 29.9 11 35 C8.69 35 6.38 35 4 35 C3.34 34.34 2.68 33.68 2 33 C0.7934375 33.7734375 0.7934375 33.7734375 -0.4375 34.5625 C-4.49022601 36.19781049 -6.61026422 35.98167207 -10.80859375 35.328125 C-13.55176576 34.91738267 -16.23158601 34.92901503 -19 35 C-19.268125 34.195625 -19.53625 33.39125 -19.8125 32.5625 C-20.4003125 31.2940625 -20.4003125 31.2940625 -21 30 C-21.99 29.67 -22.98 29.34 -24 29 C-24.33 30.98 -24.66 32.96 -25 35 C-29.29 35 -33.58 35 -38 35 C-38.33 34.34 -38.66 33.68 -39 33 C-39.33 33.66 -39.66 34.32 -40 35 C-41.98 35 -43.96 35 -46 35 C-46.33 34.34 -46.66 33.68 -47 33 C-47.33 33.66 -47.66 34.32 -48 35 C-50.31 35 -52.62 35 -55 35 C-55 23.45 -55 11.9 -55 0 C-51.7 0 -48.4 0 -45 0 C-44.34 3.63 -43.68 7.26 -43 11 C-42.34 7.37 -41.68 3.74 -41 0 C-37.7 0 -34.4 0 -31 0 C-30.505 8.415 -30.505 8.415 -30 17 C-29.01 11.39 -28.02 5.78 -27 0 C-23.7 0 -20.4 0 -17 0 C-16.49599549 2.91602609 -15.99665334 5.83272092 -15.5 8.75 C-15.35691406 9.575 -15.21382812 10.4 -15.06640625 11.25 C-14.86337891 12.44882812 -14.86337891 12.44882812 -14.65625 13.671875 C-14.53056641 14.4050293 -14.40488281 15.13818359 -14.27539062 15.89355469 C-14 18 -14 18 -14 22 C-11.69 22.33 -9.38 22.66 -7 23 C-6.814375 23.9590625 -6.814375 23.9590625 -6.625 24.9375 C-6.41875 25.618125 -6.2125 26.29875 -6 27 C-5.34 27.33 -4.68 27.66 -4 28 C-6.08729176 22.20196733 -8.56320192 19.24389382 -13 15 C-14.20190901 11.39427296 -14.32670315 8.7897565 -14 5 C-10.12413873 -1.14791788 -6.8827667 -1.37655334 0 0 Z M-5 6 C-6.05050452 8.14054182 -6.05050452 8.14054182 -6 11 C-3.62709952 14.78230781 -1.27213751 17.57595416 3 19 C3 16.36 3 13.72 3 11 C1.35 11 -0.3 11 -2 11 C-2.66 9.35 -3.32 7.7 -4 6 C-4.33 6 -4.66 6 -5 6 Z M-23 16 C-23 17.65 -23 19.3 -23 21 C-22.34 20.67 -21.68 20.34 -21 20 C-21.66 18.68 -22.32 17.36 -23 16 Z " fill="#000000" transform="translate(97,335)"/>
<path d="M0 0 C2.4375 2.0625 2.4375 2.0625 4 4 C4.33 2.68 4.66 1.36 5 0 C7.31 0 9.62 0 12 0 C12 11.55 12 23.1 12 35 C10.02 35 8.04 35 6 35 C6 35.66 6 36.32 6 37 C2.29527816 38.3721192 0.55072117 37.4863484 -3 36 C-4.7634375 35.8453125 -4.7634375 35.8453125 -6.5625 35.6875 C-10 35 -10 35 -12.4375 32.4375 C-12.953125 31.633125 -13.46875 30.82875 -14 30 C-14.5259375 31.2065625 -14.5259375 31.2065625 -15.0625 32.4375 C-17 35 -17 35 -20.3125 36 C-24.44959339 36 -26.54622532 35.22028372 -30 33 C-30.33 32.34 -30.66 31.68 -31 31 C-32.65 32.32 -34.3 33.64 -36 35 C-40.29 35 -44.58 35 -49 35 C-49 23.45 -49 11.9 -49 0 C-44.38 0 -39.76 0 -35 0 C-34.01 0.99 -33.02 1.98 -32 3 C-31.67 2.01 -31.34 1.02 -31 0 C-28.69 0 -26.38 0 -24 0 C-24 9.24 -24 18.48 -24 28 C-23.01 27.34 -22.02 26.68 -21 26 C-20.59965748 23.51311381 -20.59965748 23.51311381 -20.7421875 20.625 C-20.75636719 19.55765625 -20.77054688 18.4903125 -20.78515625 17.390625 C-20.81480469 16.27171875 -20.84445313 15.1528125 -20.875 14 C-20.91824924 11.79174469 -20.95751445 9.58340661 -20.9921875 7.375 C-21.01651855 6.39273437 -21.04084961 5.41046875 -21.06591797 4.3984375 C-21 2 -21 2 -20 0 C-18.02 0 -16.04 0 -14 0 C-13.505 1.485 -13.505 1.485 -13 3 C-12.566875 2.525625 -12.13375 2.05125 -11.6875 1.5625 C-8.03286596 -1.82142041 -4.55473579 -1.03879939 0 0 Z M-5 6 C-6.22784809 7.00559794 -6.22784809 7.00559794 -6.11352539 9.04125977 C-6.10828857 9.91580811 -6.10305176 10.79035645 -6.09765625 11.69140625 C-6.09443359 12.63564453 -6.09121094 13.57988281 -6.08789062 14.55273438 C-6.07951172 15.54595703 -6.07113281 16.53917969 -6.0625 17.5625 C-6.05798828 18.55958984 -6.05347656 19.55667969 -6.04882812 20.58398438 C-6.03700007 23.05604849 -6.02051849 25.52799518 -6 28 C-5.01 27.67 -4.02 27.34 -3 27 C-3 20.4 -3 13.8 -3 7 C-3.66 6.67 -4.32 6.34 -5 6 Z M-42 7 C-42 13.93 -42 20.86 -42 28 C-41.01 28 -40.02 28 -39 28 C-37.8517315 25.703463 -37.88438825 24.41686833 -37.90234375 21.8671875 C-37.90556641 21.06152344 -37.90878906 20.25585938 -37.91210938 19.42578125 C-37.92048828 18.58402344 -37.92886719 17.74226563 -37.9375 16.875 C-37.94201172 16.02550781 -37.94652344 15.17601562 -37.95117188 14.30078125 C-37.96297126 12.20049091 -37.98090694 10.1002367 -38 8 C-39.32 7.67 -40.64 7.34 -42 7 Z " fill="#000000" transform="translate(168,335)"/>
<path d="M0 0 C2.9375 2.0625 2.9375 2.0625 5 4 C5.185625 3.360625 5.37125 2.72125 5.5625 2.0625 C7 0 7 0 10.3125 -0.9375 C14.34739859 -1.00588811 15.84737322 -0.41083224 19 2 C19.495 2.495 19.495 2.495 20 3 C20.33 2.01 20.66 1.02 21 0 C23.31 0 25.62 0 28 0 C28 3.96 28 7.92 28 12 C28.99 12 29.98 12 31 12 C31 8.04 31 4.08 31 0 C33.31 0 35.62 0 38 0 C38 11.55 38 23.1 38 35 C36.02 35 34.04 35 32 35 C31 34 31 34 30.90234375 30.83984375 C30.91394531 29.55207031 30.92554688 28.26429688 30.9375 26.9375 C30.94652344 25.64714844 30.95554687 24.35679687 30.96484375 23.02734375 C30.97644531 22.02832031 30.98804688 21.02929688 31 20 C30.01 20.495 30.01 20.495 29 21 C28.52998967 24.27555608 28.52998967 24.27555608 28.375 28.0625 C28.30023438 29.35285156 28.22546875 30.64320313 28.1484375 31.97265625 C28.09945312 32.97167969 28.05046875 33.97070312 28 35 C25.69 35 23.38 35 21 35 C20.67 34.01 20.34 33.02 20 32 C19.62875 32.474375 19.2575 32.94875 18.875 33.4375 C16.28237324 35.5980223 14.34215434 35.79947074 11 36 C8.1875 35.25 8.1875 35.25 6 34 C5.67 33.01 5.34 32.02 5 31 C4.29875 31.639375 3.5975 32.27875 2.875 32.9375 C-0.31141002 35.22340284 -2.10936395 35.83789016 -6 36 C-9.13356684 35.07417343 -10.68468695 34.31531305 -13 32 C-13.4140625 29.8359375 -13.4140625 29.8359375 -13.625 27.375 C-13.69976562 26.55773437 -13.77453125 25.74046875 -13.8515625 24.8984375 C-13.90054687 24.27195312 -13.94953125 23.64546875 -14 23 C-11.69 23 -9.38 23 -7 23 C-6.67 24.65 -6.34 26.3 -6 28 C-5.34 28 -4.68 28 -4 28 C-4.97279773 23.67645453 -6.57208084 21.20611687 -9.5625 18.0625 C-12.85652397 14.46652384 -14.09488205 12.02874859 -14 7 C-13.2359106 3.63800664 -12.4307444 2.36920949 -9.8125 0.125 C-6.05086721 -1.37965312 -3.89201307 -1.0425035 0 0 Z M-6 6 C-6.33 6.99 -6.66 7.98 -7 9 C-5.70488185 10.97012849 -5.70488185 10.97012849 -3.8125 12.875 C-2.84570312 13.92300781 -2.84570312 13.92300781 -1.859375 14.9921875 C-0.93898438 15.98605469 -0.93898438 15.98605469 0 17 C1.34592097 18.65651812 2.6859849 20.31806068 4 22 C4 18.37 4 14.74 4 11 C2.6078125 11.1546875 2.6078125 11.1546875 1.1875 11.3125 C0.135625 11.209375 -0.91625 11.10625 -2 11 C-3.8125 8.5 -3.8125 8.5 -5 6 C-5.33 6 -5.66 6 -6 6 Z M11 7 C11 13.93 11 20.86 11 28 C11.99 27.67 12.98 27.34 14 27 C14 25.02 14 23.04 14 21 C16.31 21 18.62 21 21 21 C21 18.36 21 15.72 21 13 C19.02 13 17.04 13 15 13 C14.67 11.02 14.34 9.04 14 7 C13.01 7 12.02 7 11 7 Z " fill="#000000" transform="translate(315,335)"/>
<path d="M0 0 C1.5 2.0625 1.5 2.0625 2 4 C2.99 4 3.98 4 5 4 C5.165 3.360625 5.33 2.72125 5.5 2.0625 C7 0 7 0 10.8125 -0.9375 C14.70925014 -1.24924001 16.91606598 -0.52321874 20 2 C22.22634301 6.45268601 21.27477227 12.48548636 21.3125 17.375 C21.34150391 18.62023437 21.37050781 19.86546875 21.40039062 21.1484375 C21.40876953 22.3446875 21.41714844 23.5409375 21.42578125 24.7734375 C21.44036377 25.87091309 21.45494629 26.96838867 21.4699707 28.09912109 C20.89030073 31.67711521 19.82918765 32.80632893 17 35 C13.16667236 36.24999814 11.51505051 36.20800117 7.75 34.6875 C5 33 5 33 3 31 C2.46375 31.639375 1.9275 32.27875 1.375 32.9375 C-1.55332899 35.48052254 -3.13822812 35.92276456 -7 36 C-12.61176471 33.77647059 -12.61176471 33.77647059 -14 31 C-14.2715771 26.5469585 -14.23164453 22.0853799 -14.25 17.625 C-14.270625 16.37976563 -14.29125 15.13453125 -14.3125 13.8515625 C-14.32023437 12.0571875 -14.32023437 12.0571875 -14.328125 10.2265625 C-14.3374707 9.12908691 -14.34681641 8.03161133 -14.35644531 6.90087891 C-13.95657172 3.64656517 -13.29637614 2.30512039 -11 0 C-7.13332369 -1.2888921 -3.91488768 -1.13303445 0 0 Z M-6 6 C-7.21643292 6.99483202 -7.21643292 6.99483202 -7.11352539 8.94946289 C-7.10828857 9.7821167 -7.10305176 10.61477051 -7.09765625 11.47265625 C-7.09443359 12.37177734 -7.09121094 13.27089844 -7.08789062 14.19726562 C-7.07951172 15.14279297 -7.07113281 16.08832031 -7.0625 17.0625 C-7.05798828 18.01189453 -7.05347656 18.96128906 -7.04882812 19.93945312 C-7.0370011 22.29303065 -7.02052025 24.64648477 -7 27 C-6.01 27.33 -5.02 27.66 -4 28 C-4 21.07 -4 14.14 -4 7 C-4.66 6.67 -5.32 6.34 -6 6 Z M12 6 C10.77215191 7.00559794 10.77215191 7.00559794 10.88647461 9.04125977 C10.89171143 9.91580811 10.89694824 10.79035645 10.90234375 11.69140625 C10.90556641 12.63564453 10.90878906 13.57988281 10.91210938 14.55273438 C10.92048828 15.54595703 10.92886719 16.53917969 10.9375 17.5625 C10.94201172 18.55958984 10.94652344 19.55667969 10.95117188 20.58398438 C10.96299993 23.05604849 10.97948151 25.52799518 11 28 C11.99 27.67 12.98 27.34 14 27 C14 20.4 14 13.8 14 7 C13.34 6.67 12.68 6.34 12 6 Z M3 8 C3 14.27 3 20.54 3 27 C3.33 27 3.66 27 4 27 C4 20.73 4 14.46 4 8 C3.67 8 3.34 8 3 8 Z " fill="#000000" transform="translate(368,335)"/>
<path d="M0 0 C2.97 0 5.94 0 9 0 C10.73023589 7.2917084 11.90728594 14.58515457 13 22 C13.33 14.74 13.66 7.48 14 0 C15.98 0 17.96 0 20 0 C21 1 21 1 21.11352539 3.59204102 C21.10828857 4.71795654 21.10305176 5.84387207 21.09765625 7.00390625 C21.09443359 8.21884766 21.09121094 9.43378906 21.08789062 10.68554688 C21.07951172 11.96494141 21.07113281 13.24433594 21.0625 14.5625 C21.05798828 15.84576172 21.05347656 17.12902344 21.04882812 18.45117188 C21.03699545 21.63416022 21.02051068 24.81705762 21 28 C23.97 28 26.94 28 30 28 C30.04254356 29.99954746 30.04080783 32.00041636 30 34 C29 35 29 35 26.86694336 35.11352539 C25.49227905 35.10567017 25.49227905 35.10567017 24.08984375 35.09765625 C23.10048828 35.09443359 22.11113281 35.09121094 21.09179688 35.08789062 C20.05087891 35.07951172 19.00996094 35.07113281 17.9375 35.0625 C16.89271484 35.05798828 15.84792969 35.05347656 14.77148438 35.04882812 C12.1809334 35.03699913 9.59049441 35.02051689 7 35 C6.67 33.02 6.34 31.04 6 29 C4.68 29 3.36 29 2 29 C2.020625 29.804375 2.04125 30.60875 2.0625 31.4375 C2 34 2 34 1 35 C-0.99958364 35.04080783 -3.00045254 35.04254356 -5 35 C-5.084743 29.57644774 -4.83376768 24.37476726 -4.125 19 C-4.03549072 18.30302002 -3.94598145 17.60604004 -3.85375977 16.88793945 C-3.07011385 11.03694472 -1.86621309 5.59863926 0 0 Z M3 18 C3.99 19.485 3.99 19.485 5 21 C5 20.01 5 19.02 5 18 C4.34 18 3.68 18 3 18 Z " fill="#000000" transform="translate(6,335)"/>
<path d="M0 0 C2.31 0 4.62 0 7 0 C7 9.24 7 18.48 7 28 C9.64 28 12.28 28 15 28 C16 29 16 29 16.125 31.5 C16 34 16 34 15 35 C10.05 35 5.1 35 0 35 C0 23.45 0 11.9 0 0 Z " fill="#000000" transform="translate(390,335)"/>
</svg>
